<?xml version="1.0" ?><svg data-name="Layer 2" id="Layer_2" viewBox="0 0 512 512" xmlns="http://www.w3.org/2000/svg"><defs><style>.cls-1{fill:#fff;}</style></defs><title/><path d="M156.0352,507.93A151.9537,151.9537,0,0,1,4.07,355.9648C4.07,272.1709,72.2412,204,156.0352,204S308,272.1709,308,355.9648A151.9534,151.9534,0,0,1,156.0352,507.93Zm0-295.93C76.6523,212,12.07,276.582,12.07,355.9648A143.9694,143.9694,0,0,0,256.1572,459.4189,142.77,142.77,0,0,0,300,355.9648C300,276.582,235.418,212,156.0352,212Z"/><path d="M156.0352,359.9648a40.9912,40.9912,0,1,1,40.9912-40.9912A41.0377,41.0377,0,0,1,156.0352,359.9648Zm0-73.9824a32.9912,32.9912,0,1,0,32.9912,32.9912A33.0287,33.0287,0,0,0,156.0352,285.9824Z"/><path d="M156.0352,507.93A151.1212,151.1212,0,0,1,50.3467,465.165a4,4,0,0,1-.9238-4.3759,115.0318,115.0318,0,0,1,213.2246,0,4,4,0,0,1-.9239,4.3759A151.1245,151.1245,0,0,1,156.0352,507.93ZM57.8857,461.2949a143.9889,143.9889,0,0,0,196.2989,0,107.0334,107.0334,0,0,0-196.2989,0Z"/><path class="cls-1" d="M174.3777,43.0752V204.607a42.9794,42.9794,0,0,0,42.883,43.0752h75.0452a42.9793,42.9793,0,0,1,42.8829,43.0752v23.8518a5.3619,5.3619,0,0,0,7.6272,4.8792l78.4983-36.7967,49.9373-23.4085A43.0886,43.0886,0,0,0,496,220.2492V43.0752A42.9794,42.9794,0,0,0,453.117,0H217.2607A42.9794,42.9794,0,0,0,174.3777,43.0752Z"/><path d="M453.1169,8A35.0191,35.0191,0,0,1,488,43.0752v177.174a35.0886,35.0886,0,0,1-20.1438,31.79l-15.8894,7.4482-34.0481,15.96-52.332,24.5311L343.189,310.4783V290.7574a51.0372,51.0372,0,0,0-50.8831-51.0752H217.2607a35.019,35.019,0,0,1-34.883-35.0751V43.0752A35.0191,35.0191,0,0,1,217.2607,8H453.1169m0-8H217.2607a42.9794,42.9794,0,0,0-42.883,43.0752V204.6071a42.9794,42.9794,0,0,0,42.883,43.0751h75.0452a42.98,42.98,0,0,1,42.8831,43.0752v23.8518a5.3791,5.3791,0,0,0,5.36,5.3908,5.3213,5.3213,0,0,0,2.2671-.5116l78.498-36.7966,49.9375-23.4086A43.0887,43.0887,0,0,0,496,220.2492V43.0752A42.98,42.98,0,0,0,453.1169,0Z"/><path d="M252.89,143.8086a24.6672,24.6672,0,1,1,24.5752-24.667A24.649,24.649,0,0,1,252.89,143.8086Zm0-41.334a16.6673,16.6673,0,1,0,16.5752,16.667A16.64,16.64,0,0,0,252.89,102.4746Z"/><path d="M335.1885,143.8086a24.6672,24.6672,0,1,1,24.5752-24.667A24.6488,24.6488,0,0,1,335.1885,143.8086Zm0-41.334a16.6673,16.6673,0,1,0,16.5752,16.667A16.64,16.64,0,0,0,335.1885,102.4746Z"/><path d="M417.4883,143.8086a24.6672,24.6672,0,1,1,24.5742-24.667A24.649,24.649,0,0,1,417.4883,143.8086Zm0-41.334a16.6673,16.6673,0,1,0,16.5742,16.667A16.64,16.64,0,0,0,417.4883,102.4746Z"/></svg>